<svg xmlns:dc="http://purl.org/dc/elements/1.1/" xmlns:cc="http://creativecommons.org/ns#" xmlns:rdf="http://www.w3.org/1999/02/22-rdf-syntax-ns#" xmlns:svg="http://www.w3.org/2000/svg" xmlns="http://www.w3.org/2000/svg" xmlns:sodipodi="http://sodipodi.sourceforge.net/DTD/sodipodi-0.dtd" xmlns:inkscape="http://www.inkscape.org/namespaces/inkscape" viewBox="0 0 690.68201 643.52806" version="1.1" x="0px" y="0px"><g transform="translate(-32.817305,-374.84286)"><path style="" d="m 490.1613,374.84286 c -34.258,0 -61.942,27.621 -61.942,61.94 0,3.477 0.23,6.771 0.849,10.061 2.172,13.592 8.804,25.668 18.425,34.667 11.11,10.489 26.034,16.97 42.668,16.97 13.155,0 25.583,-4.253 35.636,-11.516 -2.854,-7.757 -4.484,-16.399 -4.484,-25.213 0,-21.101 9.053,-40.117 23.637,-53.212 -10.056,-20.107 -30.959,-33.697 -54.789,-33.697 z m -224.006,0.121 c -23.768,0 -44.612,13.469 -54.667,33.577 14.522,13.094 23.517,32.295 23.517,53.333 -0.07,8.813 -1.691,17.454 -4.607,25.213 10.054,7.2 22.662,11.516 35.757,11.516 16.634,0 31.56,-6.482 42.67,-16.971 9.619,-9.06 16.189,-21.196 18.424,-34.788 0.681,-3.289 0.848,-6.462 0.848,-9.94 0,-34.318 -27.684,-61.94 -61.942,-61.94 z m -103.274,24.97 a 61.875658,61.875658 0 0 0 -61.819,61.821 61.875658,61.875658 0 0 0 61.819,61.939 61.875658,61.875658 0 0 0 61.941,-61.939 61.875658,61.875658 0 0 0 -61.941,-61.821 z m 430.553,0 a 61.875658,61.875658 0 0 0 -61.94,61.821 61.875658,61.875658 0 0 0 61.94,61.939 61.875658,61.875658 0 0 0 61.821,-61.939 61.875658,61.875658 0 0 0 -61.821,-61.821 z m -216.245,34.787 0,0.243 c -33.079,1.055 -59.76,28.186 -59.76,61.7 0,33.389 26.681,60.522 59.76,61.577 l 0,0.122 c 0.373,0 0.659,-0.122 0.97,-0.122 0.37,0 0.718,0.122 1.091,0.122 l 0,-0.122 c 33.079,-1.118 59.637,-28.188 59.637,-61.577 0,-33.514 -26.558,-60.706 -59.637,-61.7 l 0,-0.243 c -0.373,0 -0.721,0.122 -1.091,0.122 -0.311,0 -0.597,-0.122 -0.97,-0.122 z m -165.337,79.64 c -6.764,6.579 -14.761,11.561 -23.637,14.788 l 45.213,0 c 24.577,0 47.592,13.081 59.879,34.182 l 1.335,2.061 c 4.53,-1.054 9.218,-1.455 14.183,-1.455 l 45.333,0 c -22.158,-8.193 -38.956,-26.799 -44.728,-49.576 l -97.578,0 z m 235.035,0 c -5.71,22.777 -22.572,41.383 -44.728,49.576 l 45.213,0 c 4.964,0 9.652,0.463 14.181,1.455 l 1.334,-2.061 c 12.289,-21.101 35.241,-34.182 59.879,-34.182 l 45.336,0 c -8.875,-3.289 -16.874,-8.209 -23.637,-14.788 l -97.578,0 z m -354.430995,24.97 c -32.769,0 -59.639,26.929 -59.639,59.759 l 0,142.306 c 0,11.667 9.427,20.848 20.971,20.848 11.667,0 20.849,-9.119 20.849,-20.848 l 0,-134.306 c 1.427,-4.716 6,-8.242 11.153,-8.242 5.336,0 10.031,3.883 11.271,8.847 l 0,5.818 0,156.246 0,185.579 c 0,15.579 12.666995,28.244 28.243995,28.244 15.578,0 28.364,-12.665 28.364,-28.244 l 0,-168.003 c 1.056,-2.916 3.688,-5.56 6.666,-6.181 l 5.212,0 c 3.291,0.869 5.917,3.312 6.91,6.789 l 0,167.275 c 0,15.578 12.787,28.364 28.365,28.364 14.523,0 26.33,-11.003 27.758,-25.092 0.434,-1.055 0.484,-2.216 0.484,-3.272 l 0,-348.128 c 1.365,-4.716 5.942,-8.242 11.031,-8.242 2.606,0 4.921,0.876 7.031,2.301 7.943,-15.204 21.257,-26.958 37.455,-32.605 -10.241,-17.441 -29.31,-29.213 -51.032,-29.213 l -141.092995,0 z m 430.309995,0 c -21.721,0 -40.79,11.71 -51.031,29.213 16.199,5.709 29.512,17.401 37.457,32.605 2.048,-1.425 4.239,-2.301 6.909,-2.301 5.151,0 9.662,3.526 11.151,8.242 l 0,348.128 c 0,1.056 0.05,2.217 0.485,3.272 1.365,14.152 13.294,25.092 27.879,25.092 15.577,0 28.244,-12.786 28.244,-28.364 l 0,-167.275 c 1.055,-3.537 3.619,-5.982 6.908,-6.789 l 5.092,0 c 3.103,0.621 5.795,3.265 6.789,6.181 l 0,168.003 c 0,15.579 12.785,28.244 28.362,28.244 15.579,0 28.244,-12.665 28.244,-28.244 l 0,-185.579 0,-156.246 0,-5.818 c 1.241,-4.903 5.935,-8.847 11.273,-8.847 5.089,0 9.603,3.526 11.031,8.242 l 0,134.306 c 0,11.667 9.362,20.848 21.09,20.848 11.482,0 20.85,-9.119 20.85,-20.848 l 0,-142.306 c 0,-32.83 -26.806,-59.759 -59.637,-59.759 l -141.096,0 z m -214.063,34.79 c -32.77,0 -59.638,26.988 -59.638,59.758 l 0,142.306 c 0,11.667 9.366,20.97 20.848,20.97 11.544,0 20.971,-9.24 20.971,-20.97 l 0,-134.306 c 1.365,-4.718 6.061,-8.243 11.152,-8.243 5.337,0 10.031,3.76 11.273,8.849 l 0,5.818 0,156.246 0,185.579 c 0,15.57704 12.665,28.24304 28.242,28.24304 15.577,0 28.365,-12.666 28.365,-28.24304 l 0,-168.003 c 1.055,-3.105 3.748,-5.441 6.788,-6.062 l 0.485,0 1.939,0 0.484,0 c 3.041,0.621 5.675,2.957 6.667,6.062 l 0,168.003 c 0,15.57704 12.787,28.24304 28.366,28.24304 15.577,0 28.241,-12.666 28.241,-28.24304 l 0,-185.579 0,-156.246 0,-5.818 c 1.242,-5.089 6.059,-8.849 11.394,-8.849 5.151,0 9.543,3.525 11.031,8.243 l 0,134.306 c 0,11.667 9.49,20.97 20.971,20.97 11.544,0 20.848,-9.24 20.848,-20.97 l 0,-142.306 c 0,-32.77 -26.807,-59.758 -59.637,-59.758 l -68.365,0 -1.939,0 -68.486,0 z m -7.515,70.182 0,131.881 c 0,15.391 -11.055,28.126 -25.578,30.545 l 0,123.398 c 0,15.39 12.252,27.929 27.395,28.363 l 0,-313.581 -1.817,-0.606 z m 153.942,0 -1.941,0.726 0,313.461 c 15.207,-0.434 27.517,-12.851 27.517,-28.241 l 0,-123.52 c -14.585,-2.482 -25.576,-15.154 -25.576,-30.545 l 0,-131.881 z m -215.885,136.486 0,174.549 c 0,0.435 0.07,0.779 -0.121,1.213 10.427,-4.033 17.819,-14.388 17.819,-26.302 l 0,-125.821 c -9.246,-4.222 -16.27,-13.027 -17.698,-23.639 z m 277.824,0 c -1.426,10.675 -8.448,19.358 -17.696,23.517 l 0,125.943 c 0,11.852 7.33,22.084 17.819,26.18 -0.187,-0.434 -0.121,-0.777 -0.121,-1.211 l 0,-174.429 z" fill="#000000"></path></g></svg>