<svg xmlns:x="http://ns.adobe.com/Extensibility/1.0/" xmlns:i="http://ns.adobe.com/AdobeIllustrator/10.0/" xmlns:graph="http://ns.adobe.com/Graphs/1.0/" xmlns="http://www.w3.org/2000/svg" xmlns:xlink="http://www.w3.org/1999/xlink" version="1.1" x="0px" y="0px" viewBox="0 0 64 64" enable-background="new 0 0 64 64" xml:space="preserve"><metadata><sfw xmlns="http://ns.adobe.com/SaveForWeb/1.0/"><slices></slices><sliceSourceBounds height="16384" width="16389" x="-8165" y="-8160" bottomLeftOrigin="true"></sliceSourceBounds></sfw></metadata><g><g><path d="M20,7C14.667,7,9,8.752,9,12v4c0,3.248,5.667,5,11,5s11-1.752,11-5v-4C31,8.752,25.333,7,20,7z M20,9c5.494,0,9,1.777,9,3    s-3.506,3-9,3s-9-1.777-9-3S14.506,9,20,9z M20,19c-5.494,0-9-1.777-9-3v-1.042C13.122,16.296,16.625,17,20,17    s6.878-0.704,9-2.042V16C29,17.223,25.494,19,20,19z"></path><path d="M30,19c-0.552,0-1,0.448-1,1c0,1.223-3.506,3-9,3s-9-1.777-9-3c0-0.552-0.448-1-1-1s-1,0.448-1,1v4c0,3.248,5.667,5,11,5    s11-1.752,11-5v-4C31,19.448,30.552,19,30,19z M29,24c0,1.223-3.506,3-9,3s-9-1.777-9-3v-1.037C13.122,24.299,16.628,25,20,25    s6.878-0.701,9-2.037V24z"></path><path d="M30,27c-0.552,0-1,0.448-1,1c0,1.223-3.506,3-9,3s-9-1.777-9-3c0-0.552-0.448-1-1-1s-1,0.448-1,1v4c0,3.248,5.667,5,11,5    s11-1.752,11-5v-4C31,27.448,30.552,27,30,27z M29,32c0,1.224-3.506,3-9,3s-9-1.776-9-3v-1.037C13.122,32.299,16.628,33,20,33    s6.878-0.701,9-2.037V32z"></path><path d="M30,35c-0.552,0-1,0.447-1,1c0,1.224-3.506,3-9,3s-9-1.776-9-3c0-0.553-0.448-1-1-1s-1,0.447-1,1v4c0,3.248,5.667,5,11,5    s11-1.752,11-5v-4C31,35.447,30.552,35,30,35z M29,40c0,1.224-3.506,3-9,3s-9-1.776-9-3v-1.037C13.122,40.299,16.628,41,20,41    s6.878-0.701,9-2.037V40z"></path><path d="M30,43c-0.552,0-1,0.447-1,1c0,1.224-3.506,3-9,3s-9-1.776-9-3c0-0.553-0.448-1-1-1s-1,0.447-1,1v4c0,3.248,5.667,5,11,5    s11-1.752,11-5v-4C31,43.447,30.552,43,30,43z M29,48c0,1.224-3.506,3-9,3s-9-1.776-9-3v-1.037C13.122,48.299,16.628,49,20,49    s6.878-0.701,9-2.037V48z"></path><path d="M44,27c-5.333,0-11,1.752-11,5v4c0,3.248,5.667,5,11,5s11-1.752,11-5v-4C55,28.752,49.333,27,44,27z M44,29    c5.494,0,9,1.777,9,3c0,1.224-3.506,3-9,3s-9-1.776-9-3C35,30.777,38.506,29,44,29z M44,39c-5.494,0-9-1.776-9-3v-1.042    C37.121,36.297,40.625,37,44,37s6.879-0.703,9-2.042V36C53,37.224,49.494,39,44,39z"></path><path d="M54,39c-0.553,0-1,0.447-1,1c0,1.224-3.506,3-9,3s-9-1.776-9-3c0-0.553-0.447-1-1-1s-1,0.447-1,1v4c0,3.248,5.667,5,11,5    s11-1.752,11-5v-4C55,39.447,54.553,39,54,39z M53,44c0,1.224-3.506,3-9,3s-9-1.776-9-3v-1.037C37.122,44.299,40.628,45,44,45    s6.878-0.701,9-2.037V44z"></path><path d="M54,47c-0.553,0-1,0.447-1,1c0,1.224-3.506,3-9,3s-9-1.776-9-3c0-0.553-0.447-1-1-1s-1,0.447-1,1v4c0,3.248,5.667,5,11,5    s11-1.752,11-5v-4C55,47.447,54.553,47,54,47z M53,52c0,1.224-3.506,3-9,3s-9-1.776-9-3v-1.037C37.122,52.299,40.628,53,44,53    s6.878-0.701,9-2.037V52z"></path></g></g></svg>