<svg xmlns="http://www.w3.org/2000/svg" xmlns:xlink="http://www.w3.org/1999/xlink" version="1.1" x="0px" y="0px" viewBox="0 0 48 48" enable-background="new 0 0 48 48" xml:space="preserve"><g><path d="M47.7,9.4l-6-5c-0.2-0.1-0.4-0.2-0.6-0.2H25.1V1c0-0.6-0.4-1-1-1c-0.6,0-1,0.4-1,1v3.1h-8c-0.6,0-1,0.4-1,1v10   c0,0.6,0.4,1,1,1h8v2H7c-0.2,0-0.5,0.1-0.6,0.2l-6,5C0.1,23.6,0,23.8,0,24.1c0,0.3,0.1,0.6,0.4,0.8l6,5c0.2,0.1,0.4,0.2,0.6,0.2   h16.1V47c0,0.6,0.4,1,1,1c0.6,0,1-0.4,1-1V30.1h7.8c0.6,0,1-0.4,1-1v-10c0-0.6-0.4-1-1-1h-7.8v-2H41c0.2,0,0.5-0.1,0.6-0.2l6-5   c0.2-0.2,0.4-0.5,0.4-0.8S47.9,9.6,47.7,9.4z M31.9,20.1v8H7.3l-4.8-4l4.8-4H31.9z M40.7,14.1H16.1v-8h24.6l4.8,4L40.7,14.1z"></path></g></svg>