<svg xmlns="http://www.w3.org/2000/svg" data-name="Слой 1" viewBox="0 0 128 128" x="0px" y="0px"><title>Монтажная область 61</title><path d="M118.71,34.85a2,2,0,0,0-.91,2.68A59.42,59.42,0,0,1,124,64,60,60,0,1,1,64,4a59.42,59.42,0,0,1,26.25,6A2,2,0,0,0,92,6.48,63.4,63.4,0,0,0,64,0a64,64,0,1,0,64,64,63.37,63.37,0,0,0-6.57-28.28A2,2,0,0,0,118.71,34.85Z"></path><path d="M86.66,32.26a2,2,0,0,0-.6-2.76A41,41,0,1,0,98.32,41.66,2,2,0,1,0,95,43.85a37,37,0,1,1-11.07-11A2,2,0,0,0,86.66,32.26Z"></path><path d="M64,49.13a14.86,14.86,0,0,1,5.39,1,2,2,0,1,0,1.45-3.73A18.9,18.9,0,1,0,81.5,57a2,2,0,1,0-3.71,1.5A14.92,14.92,0,1,1,64,49.13Z"></path><path d="M91.94,15.9,93,32.17,62.54,62.63a2,2,0,1,0,2.83,2.83L95.83,35l16.27,1.06h.13a2,2,0,0,0,1.41-.59l13.82-13.82a2,2,0,0,0-1.28-3.41l-14.75-1a1.8,1.8,0,0,0-.71-.72l-1-14.75A2,2,0,0,0,106.33.54L92.52,14.36A2,2,0,0,0,91.94,15.9ZM111.45,32l-11.86-.78,10.05-10.05,11.86.78ZM106,6.49l.78,11.86L96.76,28.41,96,16.55Z"></path></svg>