<svg xmlns="http://www.w3.org/2000/svg" xmlns:xlink="http://www.w3.org/1999/xlink" version="1.1" x="0px" y="0px" viewBox="0 0 100 100" enable-background="new 0 0 100 100" xml:space="preserve"><path d="M93.425,47.609c-0.035-0.008-3.535-0.827-6.334-2.079c-3.386-1.513-7.665-5.372-10.79-8.189  c-1.636-1.476-2.929-2.642-3.865-3.291c-3.849-2.667-6.929-3.463-9.403-4.102c-1.114-0.288-2.076-0.537-2.885-0.908  c-2.136-0.979-4.121-2.102-5.872-3.093c-2.802-1.585-5.221-2.955-7.44-3.311c-1.869-0.299-3.585,0.698-4.38,2.542  c-0.446,1.034-0.56,2.316-0.256,3.552c-1.241-0.102-2.58-0.174-3.953-0.246c-2.225-0.116-4.524-0.237-6.457-0.498  c-4.547-0.615-10.865-2.775-15.022-5.138c-0.721-0.409-1.636-0.157-2.045,0.563c-0.409,0.72-0.157,1.636,0.563,2.045  c4.521,2.57,11.143,4.833,16.103,5.502c2.054,0.278,4.417,0.401,6.701,0.521c3.082,0.161,6.269,0.328,7.792,0.87  c1.895,0.673,3.93,2.058,5.594,3.364c-1.994-0.372-3.907-0.902-5.127-1.694c-0.694-0.452-1.624-0.254-2.075,0.44  c-0.451,0.695-0.254,1.624,0.44,2.075c3.03,1.969,8.43,2.532,12.004,2.904c1.141,0.119,2.433,0.254,2.767,0.367  c1.688,0.571,2.471,1.074,3.377,1.657c0.556,0.357,1.187,0.763,2.042,1.19c0.601,0.3,1.245,0.553,1.869,0.796  c1.543,0.604,3.001,1.175,3.399,2.274c0.409,1.131,0.113,1.751-0.146,2.119c-0.784,1.119-2.917,1.901-5.185,1.901  c-2.474,0-5.008-1.193-6.685-1.982c-0.719-0.338-1.237-0.583-1.682-0.709c-1.399-0.4-8.843-0.469-10.679,0.334  c-0.371,0.162-0.822,0.425-1.394,0.757c-1.997,1.162-5.339,3.107-9.089,3.107c-5.038,0-11.207-2.933-13.765-4.483  c-0.709-0.43-1.631-0.203-2.06,0.505c-0.43,0.708-0.203,1.631,0.505,2.06c1.573,0.954,4.132,2.249,7.024,3.271  c-2.578,0.943-5.092,2.047-6.852,3.459c-3.188-1.263-6.405-3.872-9.578-7.802c-1.599-1.981-3.986-2.681-4.253-2.754  c-0.798-0.22-1.616,0.248-1.838,1.043c-0.223,0.795,0.243,1.621,1.037,1.848c0.017,0.004,1.712,0.499,2.72,1.747  c3.214,3.982,6.54,6.768,9.91,8.327c-0.23,0.504-0.375,1.037-0.409,1.606c-0.121,2.084,0.789,3.27,1.573,3.897  c0.978,0.782,2.26,1.094,3.456,1.094c0.632,0,1.24-0.087,1.766-0.237c0.263-0.074,1.218-0.407,2.74-0.949  c-0.04,0.794,0.096,1.602,0.439,2.363c0.84,1.859,2.651,2.941,4.84,2.941c0.275,0,0.556-0.018,0.841-0.052  c0.305-0.037,0.657-0.097,1.042-0.174c0.049,0.558,0.19,1.105,0.461,1.619c0.803,1.521,2.431,2.523,4.378,2.726  c0.157,0.852,0.509,1.767,1.286,2.54c1.248,1.242,3.3,1.822,6.452,1.822h0.114c2.758-0.01,6.988-0.087,13.314-0.243  c4.884-0.12,8.085-0.653,11.181-1.169c2.799-0.466,5.442-0.906,9.322-1.082c4.569-0.193,9.392,1.534,9.44,1.552  c0.778,0.283,1.639-0.118,1.923-0.896c0.283-0.778-0.116-1.639-0.895-1.923c-0.22-0.08-5.435-1.963-10.604-1.729  c-4.061,0.184-6.917,0.659-9.681,1.119c-3.131,0.521-6.088,1.014-10.762,1.128c-6.305,0.156-10.515,0.233-13.252,0.243  c-2.88-0.009-3.996-0.509-4.437-0.948c-0.11-0.109-0.227-0.264-0.322-0.506c3.508-0.34,8.947-1.346,12.692-3.192  c0.743-0.367,1.049-1.267,0.683-2.009c-0.367-0.744-1.268-1.046-2.009-0.683c-4.584,2.261-12.294,3.142-14.016,3.011  c-0.988-0.071-1.814-0.517-2.155-1.162c-0.158-0.3-0.183-0.622-0.095-0.961c5.715-1.595,14.076-4.667,15.648-5.298  c0.769-0.309,1.142-1.183,0.834-1.951c-0.31-0.771-1.184-1.141-1.951-0.834c-2.538,1.019-15.179,5.563-18.954,6.021  c-1.263,0.155-2.182-0.254-2.584-1.146c-0.308-0.682-0.272-1.666,0.433-2.423c2.075-0.748,4.588-1.657,7.459-2.696  c4.664-1.688,9.482-3.431,10.09-3.626c0.653-0.162,1.138-0.752,1.138-1.456c0-0.828-0.672-1.5-1.5-1.5  c-0.355,0-0.355,0-10.748,3.762c-5.778,2.091-12.97,4.692-13.607,4.874c-0.755,0.216-1.937,0.159-2.525-0.313  c-0.218-0.175-0.503-0.508-0.452-1.381c0.144-2.485,6.808-4.706,10.79-6.033l0.708-0.236c1.034,0.167,2.064,0.268,3.065,0.268  c4.56,0,8.488-2.287,10.598-3.515c0.45-0.261,0.875-0.508,1.085-0.601c1.071-0.435,7.494-0.511,8.655-0.199  c0.211,0.06,0.728,0.304,1.228,0.539c1.803,0.848,4.818,2.268,7.963,2.268c2.616,0,5.997-0.835,7.641-3.178  c0.684-0.974,1.326-2.608,0.51-4.864c-0.86-2.375-3.226-3.302-5.127-4.046c-0.587-0.229-1.141-0.447-1.62-0.687  c-0.712-0.355-1.222-0.683-1.762-1.03c-0.983-0.632-2-1.286-4.038-1.975c-0.621-0.21-1.599-0.319-3.417-0.509  c-0.049-0.005-0.103-0.011-0.152-0.016c-0.859-0.843-5.59-5.353-9.99-6.917c-0.33-0.117-0.711-0.215-1.112-0.305  c-0.82-0.797-0.921-2.025-0.565-2.851c0.256-0.591,0.644-0.848,1.151-0.769c1.687,0.271,3.888,1.517,6.437,2.96  c1.804,1.021,3.849,2.178,6.101,3.209c1.05,0.482,2.184,0.775,3.384,1.085c2.361,0.61,5.036,1.302,8.445,3.664  c0.779,0.54,2.07,1.704,3.565,3.052c3.273,2.952,7.756,6.994,11.574,8.701c3.069,1.372,6.728,2.227,6.882,2.263  c0.113,0.026,0.228,0.039,0.339,0.039c0.683,0,1.3-0.469,1.46-1.162C94.734,48.603,94.231,47.797,93.425,47.609z"></path></svg>